<svg xmlns="http://www.w3.org/2000/svg" width="491" height="67" viewBox="0 0 491 67" version="1.1">
    <path
        d="M 17.328 10.500 C 17.333 14.350, 17.513 15.802, 17.730 13.728 C 17.946 11.653, 17.943 8.503, 17.722 6.728 C 17.501 4.952, 17.324 6.650, 17.328 10.500 M 96.695 7.513 C 95.781 9.431, 95.239 11, 95.490 11 C 96.175 11, 99.210 4.877, 98.753 4.420 C 98.536 4.203, 97.610 5.594, 96.695 7.513 M 113.426 25.500 C 113.427 37.600, 113.571 42.413, 113.747 36.195 C 113.923 29.977, 113.922 20.077, 113.746 14.195 C 113.569 8.313, 113.425 13.400, 113.426 25.500 M 115.426 25.500 C 115.427 37.600, 115.571 42.413, 115.747 36.195 C 115.923 29.977, 115.922 20.077, 115.746 14.195 C 115.569 8.313, 115.425 13.400, 115.426 25.500 M 145.083 4.359 C 145.313 4.557, 146.850 5.021, 148.500 5.390 C 150.691 5.880, 151.095 5.787, 150 5.046 C 148.650 4.132, 144.080 3.494, 145.083 4.359 M 160.426 25.500 C 160.427 37.600, 160.571 42.413, 160.747 36.195 C 160.923 29.977, 160.922 20.077, 160.746 14.195 C 160.569 8.313, 160.425 13.400, 160.426 25.500 M 209.250 5.989 C 207.463 7.079, 206 8.257, 206 8.608 C 206 8.958, 206.593 8.752, 207.319 8.150 C 208.044 7.548, 210.182 6.386, 212.069 5.567 C 213.956 4.748, 214.825 4.062, 214 4.043 C 213.175 4.023, 211.037 4.899, 209.250 5.989 M 234 4.716 C 234.825 5.023, 236.738 5.899, 238.250 6.663 C 239.762 7.427, 241 7.826, 241 7.551 C 241 6.766, 235.245 3.991, 233.800 4.079 C 232.927 4.132, 232.992 4.341, 234 4.716 M 250.469 25.500 L 250.500 47.500 258.500 47.500 L 266.500 47.500 267 40.654 C 267.275 36.888, 267.163 33.599, 266.750 33.345 C 266.337 33.090, 266 36.059, 266 39.941 L 266 47 258.520 47 L 251.039 47 250.739 25.250 L 250.439 3.500 250.469 25.500 M 280.083 4.359 C 280.313 4.557, 281.850 5.021, 283.500 5.390 C 285.691 5.880, 286.095 5.787, 285 5.046 C 283.650 4.132, 279.080 3.494, 280.083 4.359 M 296.426 25.500 C 296.427 37.600, 296.571 42.413, 296.747 36.195 C 296.923 29.977, 296.922 20.077, 296.746 14.195 C 296.569 8.313, 296.425 13.400, 296.426 25.500 M 337.426 25.500 C 337.427 37.600, 337.571 42.413, 337.747 36.195 C 337.923 29.977, 337.922 20.077, 337.746 14.195 C 337.569 8.313, 337.425 13.400, 337.426 25.500 M 367.083 4.359 C 367.313 4.557, 368.850 5.021, 370.500 5.390 C 372.691 5.880, 373.095 5.787, 372 5.046 C 370.650 4.132, 366.080 3.494, 367.083 4.359 M 83 10 C 84.122 12.200, 85.266 14, 85.541 14 C 85.816 14, 85.122 12.200, 84 10 C 82.878 7.800, 81.734 6, 81.459 6 C 81.184 6, 81.878 7.800, 83 10 M 154 8.500 C 155.292 9.875, 156.574 11, 156.849 11 C 157.124 11, 156.292 9.875, 155 8.500 C 153.708 7.125, 152.426 6, 152.151 6 C 151.876 6, 152.708 7.125, 154 8.500 M 289 8.500 C 290.292 9.875, 291.574 11, 291.849 11 C 292.124 11, 291.292 9.875, 290 8.500 C 288.708 7.125, 287.426 6, 287.151 6 C 286.876 6, 287.708 7.125, 289 8.500 M 376 8.500 C 377.292 9.875, 378.574 11, 378.849 11 C 379.124 11, 378.292 9.875, 377 8.500 C 375.708 7.125, 374.426 6, 374.151 6 C 373.876 6, 374.708 7.125, 376 8.500 M 384.272 14 C 384.272 16.475, 384.467 17.488, 384.706 16.250 C 384.944 15.012, 384.944 12.988, 384.706 11.750 C 384.467 10.512, 384.272 11.525, 384.272 14 M 131.272 19 C 131.272 21.475, 131.467 22.488, 131.706 21.250 C 131.944 20.012, 131.944 17.988, 131.706 16.750 C 131.467 15.512, 131.272 16.525, 131.272 19 M 225 15.383 C 225 15.594, 226.111 15.979, 227.470 16.239 C 228.828 16.499, 229.702 16.326, 229.411 15.856 C 228.899 15.027, 225 14.610, 225 15.383 M 266.272 19 C 266.272 21.475, 266.467 22.488, 266.706 21.250 C 266.944 20.012, 266.944 17.988, 266.706 16.750 C 266.467 15.512, 266.272 16.525, 266.272 19 M 353.272 19 C 353.272 21.475, 353.467 22.488, 353.706 21.250 C 353.944 20.012, 353.944 17.988, 353.706 16.750 C 353.467 15.512, 353.272 16.525, 353.272 19 M 158.252 19.500 C 158.263 21.700, 158.468 22.482, 158.707 21.238 C 158.946 19.994, 158.937 18.194, 158.687 17.238 C 158.437 16.282, 158.241 17.300, 158.252 19.500 M 26.402 32 C 26.402 40.525, 26.556 44.013, 26.743 39.750 C 26.931 35.487, 26.931 28.513, 26.743 24.250 C 26.556 19.987, 26.402 23.475, 26.402 32 M 417.402 32 C 417.402 40.525, 417.556 44.013, 417.743 39.750 C 417.931 35.487, 417.931 28.513, 417.743 24.250 C 417.556 19.987, 417.402 23.475, 417.402 32 M 406.500 23 C 408.648 25.200, 410.631 27, 410.906 27 C 411.181 27, 409.648 25.200, 407.500 23 C 405.352 20.800, 403.369 19, 403.094 19 C 402.819 19, 404.352 20.800, 406.500 23 M 199.320 26 C 199.320 29.575, 199.502 31.038, 199.723 29.250 C 199.945 27.462, 199.945 24.538, 199.723 22.750 C 199.502 20.962, 199.320 22.425, 199.320 26 M 55.272 25 C 55.272 27.475, 55.467 28.488, 55.706 27.250 C 55.944 26.012, 55.944 23.988, 55.706 22.750 C 55.467 21.512, 55.272 22.525, 55.272 25 M 291.205 23.450 C 290.588 24.803, 288.378 26.810, 286.292 27.910 C 284.206 29.011, 282.950 29.930, 283.500 29.952 C 286.507 30.074, 294.251 22.917, 292.743 21.410 C 292.513 21.180, 291.821 22.098, 291.205 23.450 M 325.272 25 C 325.272 27.475, 325.467 28.488, 325.706 27.250 C 325.944 26.012, 325.944 23.988, 325.706 22.750 C 325.467 21.512, 325.272 22.525, 325.272 25 M 446.272 25 C 446.272 27.475, 446.467 28.488, 446.706 27.250 C 446.944 26.012, 446.944 23.988, 446.706 22.750 C 446.467 21.512, 446.272 22.525, 446.272 25 M 233.252 25.500 C 233.263 27.700, 233.468 28.482, 233.707 27.238 C 233.946 25.994, 233.937 24.194, 233.687 23.238 C 233.437 22.282, 233.241 23.300, 233.252 25.500 M 214.195 25.500 C 214.215 27.150, 214.439 27.704, 214.693 26.731 C 214.947 25.758, 214.930 24.408, 214.656 23.731 C 214.382 23.054, 214.175 23.850, 214.195 25.500 M 390.867 27.157 C 393.268 29.718, 394.929 32.305, 394.558 32.907 C 394.186 33.508, 394.359 34, 394.941 34 C 397.240 34, 395.775 31.205, 391.250 26.958 L 386.500 22.500 390.867 27.157 M 154.573 27.906 L 151.645 31.500 155.021 28.282 C 156.878 26.512, 158.196 24.895, 157.949 24.688 C 157.702 24.481, 156.183 25.929, 154.573 27.906 M 248.195 30.500 C 248.215 32.150, 248.439 32.704, 248.693 31.731 C 248.947 30.758, 248.930 29.408, 248.656 28.731 C 248.382 28.054, 248.175 28.850, 248.195 30.500 M 412.080 30 C 413.538 33.061, 414 33.628, 414 32.358 C 414 31.821, 413.300 30.509, 412.445 29.441 C 410.978 27.611, 410.958 27.643, 412.080 30 M 368.570 29.887 C 368.269 30.374, 368.805 31.387, 369.761 32.137 C 371.312 33.353, 371.361 33.322, 370.208 31.847 C 369.153 30.497, 369.153 30.100, 370.208 29.676 C 371.095 29.320, 371.126 29.133, 370.309 29.079 C 369.654 29.036, 368.871 29.399, 368.570 29.887 M 80 38.500 C 80 43.358, 80.192 47.141, 80.428 46.906 C 81.146 46.187, 81.353 31.020, 80.654 30.321 C 80.294 29.961, 80 33.642, 80 38.500 M 217.405 33.750 C 218.453 34.987, 220.253 35.948, 221.405 35.884 C 223.420 35.772, 223.424 35.749, 221.500 35.281 C 220.400 35.013, 218.600 34.052, 217.500 33.147 C 215.516 31.514, 215.516 31.518, 217.405 33.750 M 131.336 40 C 131.336 44.125, 131.513 45.813, 131.728 43.750 C 131.944 41.688, 131.944 38.313, 131.728 36.250 C 131.513 34.188, 131.336 35.875, 131.336 40 M 353.136 40.250 C 353.280 47.885, 353.727 47.052, 354.211 38.249 C 354.370 35.362, 354.163 32.999, 353.750 32.999 C 353.337 33, 353.061 36.263, 353.136 40.250 M 198.328 40.500 C 198.333 44.350, 198.513 45.802, 198.730 43.728 C 198.946 41.653, 198.943 38.503, 198.722 36.728 C 198.501 34.952, 198.324 36.650, 198.328 40.500 M 246.144 36.750 C 245.053 39.300, 245.078 39.359, 246.484 37.559 C 247.318 36.491, 248 35.254, 248 34.809 C 248 33.289, 247.322 33.999, 246.144 36.750 M 414.232 37 C 414.232 38.925, 414.438 39.712, 414.689 38.750 C 414.941 37.788, 414.941 36.212, 414.689 35.250 C 414.438 34.288, 414.232 35.075, 414.232 37 M 458.328 40.500 C 458.333 44.350, 458.513 45.802, 458.730 43.728 C 458.946 41.653, 458.943 38.503, 458.722 36.728 C 458.501 34.952, 458.324 36.650, 458.328 40.500 M 361.500 42 C 364.209 44.750, 366.650 47, 366.925 47 C 367.200 47, 365.209 44.750, 362.500 42 C 359.791 39.250, 357.350 37, 357.075 37 C 356.800 37, 358.791 39.250, 361.500 42 M 274 45 C 276.241 48.300, 278.300 51, 278.575 51 C 278.850 51, 277.241 48.300, 275 45 C 272.759 41.700, 270.700 39, 270.425 39 C 270.150 39, 271.759 41.700, 274 45 M 411.286 43.699 C 410.068 44.965, 409.436 46, 409.881 46 C 410.856 46, 414.494 42.112, 413.911 41.693 C 413.685 41.531, 412.504 42.434, 411.286 43.699 M 292.750 48.934 C 294.584 50.472, 295 51.842, 295 56.347 C 295 61.832, 294.976 61.876, 291.750 62.277 C 288.550 62.674, 288.558 62.682, 292.250 62.840 L 296 63 295.992 56.250 C 295.985 49.859, 295.839 49.435, 293.242 48.274 L 290.500 47.048 292.750 48.934 M 284.722 60.050 C 285.944 61.337, 287.138 62.189, 287.374 61.944 C 287.611 61.700, 286.611 60.648, 285.152 59.606 L 282.500 57.712 284.722 60.050"
        stroke="none" fill="#666666" fill-rule="evenodd" />
    <path
        d="M 215.951 4.303 C 204.017 7.677, 199.562 14.033, 200.146 26.855 C 200.437 33.257, 200.975 35.364, 203.165 38.673 C 207.835 45.729, 219.122 49.188, 230.574 47.071 C 242.408 44.883, 248.243 37.933, 248.353 25.893 C 248.442 16.204, 245.309 10.421, 237.985 6.754 C 231.387 3.452, 222.470 2.460, 215.951 4.303 M 18 10.500 L 18 17 22.500 17 L 27 17 27 32 L 27 47 53.461 47 L 79.922 47 80.211 38.250 L 80.500 29.500 85.125 38.478 L 89.750 47.455 94.324 38.478 L 98.899 29.500 98.949 38.250 L 99 47 106 47 L 113 47 113 25.500 L 113 4 106.237 4 L 99.473 4 94.605 13.112 L 89.736 22.224 84.795 13.112 L 79.854 4 72.927 4 L 66 4 66 19 L 66 34 53.500 34 L 41 34 41 31.500 C 41 29.071, 41.200 29, 48 29 L 55 29 55 25 L 55 21 48 21 C 41.667 21, 41 20.810, 41 19 C 41 17.116, 41.667 17, 52.500 17 L 64 17 64 10.500 L 64 4 41 4 L 18 4 18 10.500 M 116 25.500 L 116 47 123.500 47 L 131 47 131 40 L 131 33 137.750 32.994 C 147.056 32.987, 151.262 31.605, 155.026 27.317 C 157.990 23.942, 158.187 23.267, 157.795 17.840 C 156.985 6.642, 151.595 4, 129.557 4 L 116 4 116 25.500 M 161 25.500 L 161 47 179.500 47 L 198 47 198 40.500 L 198 34 186.500 34 L 175 34 175 19 L 175 4 168 4 L 161 4 161 25.500 M 251 25.500 L 251 47 258.456 47 L 265.912 47 266.206 39.813 L 266.500 32.625 275.800 46.304 C 280.915 53.828, 285.948 60.437, 286.985 60.992 C 288.021 61.546, 290.248 62, 291.934 62 L 295 62 295 56.107 C 295 51.968, 294.582 50.053, 293.595 49.675 C 292.822 49.378, 289.679 44.947, 286.610 39.828 L 281.030 30.520 285.494 28.252 C 296.649 22.582, 294.764 8.193, 282.461 5.094 C 280.070 4.492, 272.014 4, 264.557 4 L 251 4 251 25.500 M 297 25.500 L 297 47 317 47 L 337 47 337 40.500 L 337 34 324 34 L 311 34 311 31.500 C 311 29.071, 311.200 29, 318 29 L 325 29 325 25 L 325 21 318 21 C 311.667 21, 311 20.810, 311 19 C 311 17.116, 311.667 17, 322.500 17 L 334 17 334 10.500 L 334 4 315.500 4 L 297 4 297 25.500 M 338 25.500 L 338 47 345.500 47 L 353 47 353 40 C 353 36.150, 353.183 33, 353.406 33 C 353.630 33, 356.853 36.150, 360.570 40 L 367.328 47 386.196 47 C 406.265 47, 410.761 46.184, 412.920 42.150 C 415.638 37.070, 413.049 29.260, 406.588 23.054 C 401.183 17.863, 401.741 17, 410.500 17 L 418 17 418 32 L 418 47 438 47 L 458 47 458 40.500 L 458 34 445 34 L 432 34 432 31.500 C 432 29.071, 432.200 29, 439 29 L 446 29 446 25 L 446 21 439 21 C 432.667 21, 432 20.810, 432 19 C 432 17.116, 432.667 17, 443.500 17 L 455 17 455 10.500 L 455 4 424.065 4 C 405.082 4, 392.074 4.402, 390.397 5.039 C 386.508 6.518, 385.068 8.869, 385.032 13.800 C 384.993 19.087, 386.629 22.332, 391.918 27.453 C 398.288 33.621, 397.810 34, 383.655 34 C 372.757 34, 371.107 33.775, 369.575 32.082 C 367.899 30.231, 367.999 30.094, 372.453 28.124 C 383.587 23.199, 381.691 8.413, 369.500 5.099 C 367.300 4.501, 359.313 4.009, 351.750 4.006 L 338 4 338 25.500 M 131 19 L 131 23 137.465 23 C 142.906 23, 144.099 22.683, 145 21 C 145.760 19.579, 145.760 18.421, 145 17 C 144.099 15.317, 142.906 15, 137.465 15 L 131 15 131 19 M 218.299 16.503 C 213.639 19.767, 213.059 28.263, 217.142 33.453 C 218.785 35.542, 219.997 36, 223.884 36 C 229.574 36, 232.598 33.660, 233.564 28.511 C 235.021 20.745, 231.187 15, 224.548 15 C 222.291 15, 219.479 15.676, 218.299 16.503 M 266 19 L 266 23 272.465 23 C 277.906 23, 279.099 22.683, 280 21 C 280.760 19.579, 280.760 18.421, 280 17 C 279.099 15.317, 277.906 15, 272.465 15 L 266 15 266 19 M 353 19 L 353 23 359.465 23 C 364.906 23, 366.099 22.683, 367 21 C 367.760 19.579, 367.760 18.421, 367 17 C 366.099 15.317, 364.906 15, 359.465 15 L 353 15 353 19"
        stroke="none" fill="#040404" fill-rule="evenodd" />
</svg>